<svg width="80" height="85" viewBox="0 0 80 85" fill="none" xmlns="http://www.w3.org/2000/svg">
<path d="M79.3847 60.6988C79.5595 60.7182 79.8881 60.7506 79.9021 60.7442C79.9021 60.485 80 60.2388 80 59.9731C79.993 48.2582 80 36.5434 79.993 24.8285C79.993 22.0359 78.6784 19.8912 76.1053 18.4657C71.9728 16.1785 67.8193 13.9366 63.6728 11.6752C57.2678 8.1828 50.8489 4.70334 44.4578 1.19147C41.577 -0.383036 38.7381 -0.402475 35.8642 1.16555C33.1792 2.63639 30.4801 4.08779 27.7881 5.54567C24.4807 7.34048 21.1663 9.12881 17.8589 10.9236C14.3977 12.7962 10.9295 14.6687 7.47527 16.5543C5.9859 17.3707 4.45457 18.1093 3.02813 19.0294C2.8743 19.3275 2.51769 19.4182 2.28694 19.6385C0.818543 21.051 0.0353988 22.7227 0.0353988 24.686C0.0144217 36.5304 -0.0135477 48.3749 0.00742938 60.2128C0.0144217 62.9731 1.36395 65.1113 3.93713 66.5173C7.97173 68.7333 12.0413 70.8975 16.0899 73.094C22.7326 76.6901 29.3683 80.2991 36.0181 83.8888C38.7521 85.3661 41.5211 85.3726 44.2551 83.8953C48.7022 81.4849 53.1354 79.0551 57.5755 76.6318C63.4491 73.4244 69.3157 70.2106 75.1963 67.0098C76.4409 66.3294 77.6646 65.6361 78.5106 64.5087C79.3567 63.3748 79.9581 62.1632 79.9161 60.7442C79.8811 60.7506 79.5595 60.7247 79.3847 60.6988ZM3.64346 19.5348C3.65045 19.5542 3.66443 19.5672 3.68541 19.5802C3.66443 19.5672 3.65045 19.5478 3.64346 19.5348ZM75.9165 59.0789C75.8116 59.8889 75.5319 60.6599 75.1613 61.3791C74.8676 61.9429 74.4411 62.4547 73.9866 62.9407C73.1055 63.8673 71.9518 64.4245 70.833 65.0336C66.302 67.5022 61.7709 69.9709 57.2469 72.4396C54.0723 74.1696 50.9048 75.8931 47.7303 77.6231C46.5206 78.284 45.3249 78.9579 44.1082 79.5929C41.4022 81.0119 38.7031 80.9665 36.0251 79.5216C30.7458 76.6707 25.4736 73.8067 20.1944 70.9493C16.0619 68.7139 11.9224 66.4785 7.79692 64.2366C6.93686 63.7701 6.22364 63.1351 5.60831 62.4094C4.50352 61.107 4.063 59.5973 4.063 57.9774C4.04901 47.6168 4.04901 37.2626 4.04901 26.902C4.04901 24.9646 4.77622 23.2735 6.21664 21.8609C6.38446 21.6989 6.5313 21.524 6.69212 21.3555C6.74107 21.3361 6.79002 21.3167 6.83896 21.2972L6.84596 21.3037C8.41924 20.2605 10.1394 19.4441 11.7965 18.537C15.4116 16.5607 19.0476 14.6104 22.6767 12.6472C26.9909 10.3145 31.3122 7.98842 35.6125 5.63638C36.6194 5.08562 37.6263 4.62558 38.794 4.44416C40.7379 4.1461 42.521 4.48951 44.2061 5.40312C48.7581 7.89123 53.3172 10.3664 57.8692 12.8545C63.7987 16.0877 69.7212 19.3275 75.6508 22.5542C75.8815 22.6773 75.9654 22.8069 75.9654 23.0532C75.9654 34.7356 75.9724 46.4116 75.9724 58.0941C75.9724 58.4245 75.9374 58.755 75.9165 59.0789Z" fill="url(#paint0_linear_110_400)"/>
<path d="M57.4712 35.6231L50.1852 39.5238V31.729L45.9758 29.4741H45.9967L50.1991 22.7225H54.3456V20.215H48.6328L43.6403 28.2301L40.1931 26.3834L36.8018 28.1977L31.8302 20.215H26.0056V22.7225H30.2709L34.4593 29.4482L30.208 31.729V39.5238L22.9219 35.6231L12.9299 40.9687V51.6598L22.9219 57.0053L30.208 53.1112V59.8887L40.2001 65.2343L50.1921 59.8887V53.1112L57.4782 57.0118L67.4703 51.6663V40.9752L57.4712 35.6231ZM30.201 50.2149L22.915 54.109L15.6359 50.2149V42.4201L22.9219 38.5259L30.208 42.4201V50.2149H30.201ZM32.914 40.7614V33.1804L40.2001 29.2862L47.4791 33.1804V40.9752L47.4581 40.9881L40.1931 44.8758L32.907 40.9817V40.7614H32.914ZM47.4791 58.4373L40.1931 62.3315L32.907 58.4373V55.6706L40.1931 59.5647L47.4791 55.6706V58.4373ZM47.4791 50.8887V52.7548L40.1931 56.649L32.907 52.7548V51.4006V49.8779L40.1931 53.7786L47.4791 49.8844V50.8887ZM47.4791 46.9752L40.1931 50.8758L32.914 46.9752V43.8715L40.2001 47.7656L47.4651 43.878L47.4861 43.865V46.9752H47.4791ZM64.7572 50.2149L57.4712 54.109L50.1852 50.2149V42.4201L57.4712 38.5259L64.7572 42.4201V50.2149Z" fill="url(#paint1_linear_110_400)"/>
<defs>
<linearGradient id="paint0_linear_110_400" x1="5.50265" y1="61.3585" x2="54.6051" y2="60.4358" gradientUnits="userSpaceOnUse">
<stop stop-color="#ECA7A5"/>
<stop offset="0.0364583" stop-color="#F0A69E"/>
<stop offset="0.161458" stop-color="#EC8EA5"/>
<stop offset="0.322917" stop-color="#EB7FA5"/>
<stop offset="0.671875" stop-color="#BF93D2"/>
<stop offset="0.854167" stop-color="#94AAE3"/>
<stop offset="1" stop-color="#71BCF1"/>
</linearGradient>
<linearGradient id="paint1_linear_110_400" x1="16.6813" y1="52.7128" x2="50.1494" y2="51.9033" gradientUnits="userSpaceOnUse">
<stop stop-color="#ECA7A5"/>
<stop offset="0.0364583" stop-color="#F0A69E"/>
<stop offset="0.161458" stop-color="#EC8EA5"/>
<stop offset="0.322917" stop-color="#EB7FA5"/>
<stop offset="0.671875" stop-color="#BF93D2"/>
<stop offset="0.854167" stop-color="#94AAE3"/>
<stop offset="1" stop-color="#71BCF1"/>
</linearGradient>
</defs>
</svg>
