<svg width="70" height="70" viewBox="0 0 70 70" fill="none" xmlns="http://www.w3.org/2000/svg">
<circle cx="35" cy="35" r="34.5" stroke="#FCFCFC"/>
<path d="M35.8715 29.1409C32.1448 29.1409 29.1372 32.1486 29.1372 35.8753C29.1372 39.602 32.1448 42.6097 35.8715 42.6097C39.5982 42.6097 42.6058 39.602 42.6058 35.8753C42.6058 32.1486 39.5982 29.1409 35.8715 29.1409ZM35.8715 40.2522C33.4615 40.2522 31.4947 38.2854 31.4947 35.8753C31.4947 33.4652 33.4615 31.4984 35.8715 31.4984C38.2815 31.4984 40.2483 33.4652 40.2483 35.8753C40.2483 38.2854 38.2815 40.2522 35.8715 40.2522ZM42.8816 27.2956C42.0115 27.2956 41.3088 27.9983 41.3088 28.8684C41.3088 29.7385 42.0115 30.4412 42.8816 30.4412C43.7517 30.4412 44.4543 29.7418 44.4543 28.8684C44.4546 28.6618 44.4141 28.4571 44.3351 28.2662C44.2562 28.0753 44.1403 27.9018 43.9942 27.7557C43.8481 27.6096 43.6747 27.4937 43.4837 27.4148C43.2928 27.3358 43.0882 27.2953 42.8816 27.2956ZM48.9985 35.8753C48.9985 34.0628 49.015 32.2668 48.9132 30.4576C48.8114 28.3562 48.332 26.4912 46.7954 24.9545C45.2555 23.4145 43.3938 22.9384 41.2924 22.8367C39.48 22.7349 37.6839 22.7513 35.8748 22.7513C34.0623 22.7513 32.2663 22.7349 30.4571 22.8367C28.3558 22.9384 26.4908 23.4178 24.9542 24.9545C23.4142 26.4944 22.9381 28.3562 22.8364 30.4576C22.7346 32.2701 22.751 34.0661 22.751 35.8753C22.751 37.6845 22.7346 39.4838 22.8364 41.293C22.9381 43.3944 23.4175 45.2595 24.9542 46.7961C26.4941 48.3361 28.3558 48.8122 30.4571 48.914C32.2696 49.0157 34.0656 48.9993 35.8748 48.9993C37.6872 48.9993 39.4832 49.0157 41.2924 48.914C43.3938 48.8122 45.2587 48.3328 46.7954 46.7961C48.3353 45.2562 48.8114 43.3944 48.9132 41.293C49.0182 39.4838 48.9985 37.6878 48.9985 35.8753ZM46.1091 43.6177C45.8695 44.2153 45.5805 44.6619 45.1176 45.1216C44.6546 45.5845 44.2113 45.8735 43.6138 46.1132C41.8867 46.7994 37.7857 46.6451 35.8715 46.6451C33.9573 46.6451 29.853 46.7994 28.1259 46.1164C27.5283 45.8768 27.0818 45.5878 26.6221 45.1248C26.1592 44.6619 25.8702 44.2186 25.6305 43.621C24.9476 41.8906 25.1019 37.7896 25.1019 35.8753C25.1019 33.961 24.9476 29.8567 25.6305 28.1296C25.8702 27.532 26.1592 27.0855 26.6221 26.6258C27.0851 26.1661 27.5283 25.8739 28.1259 25.6342C29.853 24.9512 33.9573 25.1055 35.8715 25.1055C37.7857 25.1055 41.89 24.9512 43.617 25.6342C44.2146 25.8739 44.6612 26.1628 45.1208 26.6258C45.5838 27.0887 45.8727 27.532 46.1124 28.1296C46.7954 29.8567 46.6411 33.961 46.6411 35.8753C46.6411 37.7896 46.7954 41.8906 46.1091 43.6177Z" fill="#FCFCFC"/>
</svg>
