<svg width="70" height="70" viewBox="0 0 70 70" fill="none" xmlns="http://www.w3.org/2000/svg">
<circle cx="35" cy="35" r="34.5" stroke="#FCFCFC"/>
<path d="M23.079 26.9079C25.1937 26.9079 26.908 25.1935 26.908 23.0789C26.908 20.9642 25.1937 19.2499 23.079 19.2499C20.9643 19.2499 19.25 20.9642 19.25 23.0789C19.25 25.1935 20.9643 26.9079 23.079 26.9079Z" fill="#FCFCFC"/>
<path d="M30.5241 29.8079V51.0512H37.1198V40.5459C37.1198 37.7739 37.6413 35.0894 41.0783 35.0894C44.4681 35.0894 44.5101 38.2587 44.5101 40.7209V51.0529H51.1093V39.4032C51.1093 33.6807 49.8773 29.2829 43.1888 29.2829C39.9776 29.2829 37.8251 31.0452 36.9448 32.7129H36.8556V29.8079H30.5241ZM19.7756 29.8079H26.3818V51.0512H19.7756V29.8079Z" fill="#FCFCFC"/>
</svg>
