<svg width="70" height="70" viewBox="0 0 70 70" fill="none" xmlns="http://www.w3.org/2000/svg">
<circle cx="35" cy="35" r="34.5" stroke="#FCFCFC"/>
<path d="M50.75 24.1179C49.6559 24.6304 48.4654 24.9993 47.239 25.143C48.5123 24.3215 49.4657 23.0236 49.9205 21.4929C48.7258 22.2648 47.4169 22.8061 46.052 23.0927C45.4816 22.4304 44.7917 21.9027 44.0252 21.5426C43.2588 21.1825 42.4323 20.9977 41.5972 20.9997C38.2186 20.9997 35.5014 23.9742 35.5014 27.6243C35.5014 28.1369 35.5586 28.6495 35.6515 29.1426C30.5925 28.8553 26.0805 26.2303 23.0808 22.2113C22.5342 23.2252 22.2478 24.3797 22.2513 25.5546C22.2513 27.8534 23.3275 29.8804 24.9686 31.0726C24.0015 31.0312 23.057 30.7425 22.212 30.2299V30.3115C22.212 33.5306 24.3071 36.1983 27.0994 36.8118C26.5751 36.9597 26.0358 37.0354 25.4941 37.0371C25.0973 37.0371 24.7219 36.9943 24.3429 36.9361C25.1151 39.5611 27.364 41.4677 30.0419 41.5298C27.9468 43.3122 25.3225 44.3606 22.473 44.3606C21.9617 44.3606 21.4898 44.3412 21 44.2791C23.7029 46.1624 26.9099 47.2497 30.3637 47.2497C41.5758 47.2497 47.711 37.1613 47.711 28.4049C47.711 28.1175 47.711 27.8302 47.6931 27.5428C48.8801 26.5992 49.9205 25.4304 50.75 24.1179Z" fill="#FCFCFC"/>
</svg>
